<svg width="236.8" height="253.1" viewBox="0 0 62.7 67">
  <path fill="#fff" d="M29.6 66.7a35.8 35.8 0 0 1-13.5-7A47 47 0 0 1 .3 31.4L0 29.6V4l2.4-.6a117.2 117.2 0 0 1 59.5.4l.8.2v24.5l-.4 2.5a46 46 0 0 1-13 26 35 35 0 0 1-16 9.5c-1.7.4-2.4.4-3.7 0zm5.7-4.8a28.6 28.6 0 0 0 22.2-23c.6-3 .7-5.2.6-19.2V6L57 5.8C52.5 4.5 45.5 3 40.7 2.5c-6.6-1-12.3-1-19 0-4.7.6-11.7 2-16.2 3.3l-1 .3v14.7c0 15.7 0 16 .8 19.3a28.4 28.4 0 0 0 23 22c1.6.2 5.2.1 7-.2zM29 61a20 20 0 0 1-3.3-.6H25V49.6H12.5l-.5.5-.5.3-.8-1.2A31 31 0 0 1 6 38v-.4h19v-10h.7c.8-.2 10-.2 11 0h.5v10h19.2v.5c-.8 3.8-2.5 8-4.7 11.2l-.8 1-.5-.2-.5-.4H37.2V60h-.6c-2 .6-6 1-7.6.7zm2.7-3.2l.5-1.2 1.2.5 1 .5c.2 0 0-.6-.3-1.3l-.6-1.2 1.4-.5 1.3-.5-1.3-.5-1.3-.5.5-1.2.6-1.4-1.2.6-1.3.5-.5-1.3-.6-1.2-.5 1.3-.4 1.3a29.4 29.4 0 0 1-2.6-1.1l.6 1.2.5 1.3-1 .4-1.4.5s.5.4 1.2.6l1.2.5-.5 1.2c-.4.7-.5 1.2-.5 1.3L29 57c.6-.3 1-.5 1.2-.4l.6 1.2.4 1.2.6-1.3zm-16.3-9.6l.4-1.3.3-.6 1.2.6 1.2.6-.5-1.3-.6-1.3 1.3-.4L20 44l-1.2-.5-1.2-.5.4-1.4.5-1.2-1.3.6-1.2.6-.4-1.3-.5-1.3s-.4.5-.6 1.2l-.5 1.4-1.2-.6-1.2-.5.4 1.2.5 1.2-1.2.6c-.7.2-1.3.4-1.2.5l1.2.5 1.2.5-.5 1.3c-.3.6-.5 1-.4 1.2l1.2-.6 1.3-.4.4 1.2.5 1.2s.3-.3.4-.7zm32.3-.5l.5-1.2 1.3.4 1.2.6-.4-1.2L50 45l1.2-.5 1.2-.5-1.2-.5-1.2-.6.5-1.2.4-1.2-1.2.5-1.2.6L48 40c-.3-.7-.5-1.3-.6-1.2L47 40l-.4 1.3-1.2-.6a21 21 0 0 0-1.3-.6l.5 1.2c.3.7.5 1.3.4 1.4l-1.2.5a4 4 0 0 0-1.2.5l1.3.5 1.3.4a29.2 29.2 0 0 1-1.2 2.6s.7-.2 1.3-.6l1.2-.6.3.6.4 1.3.3.7.5-1.2zm-17.3-7.4a2 2 0 0 0-.8-.8l-.6-.3h-5.8v8.2h6.3l.5.3.6.3v-7.4l-.2-.4zm-6 5.2v-.3h5v.6h-5zm0-2V43h5v.5h-5zm0-2V41h5v.5h-5zm11.5 6h3.2V39h-5.8l-.6.2c-1 .5-1 .8-1 5v3.5l.5-.3.6-.3H36zm-3-2V45h4.8v.6H33zm0-2V43h4.8v.5H33zm0-2V41h4.8v.5H33zm-10.2 5.3v-.5h-1.2v1h1.2zm18 0v-.5h-1v1h1zm-18-2.2V44h-1.2v1h1.2zm18 0V44h-1v1h1zm-18-2.2V42h-1.2v1h1.2zm18 0V42h-1v1h1zm-18-2.2v-.5h-1.2v1h1.2zm18 0v-.5h-1v1h1zm-9.2-1.5c0-.4.3-1 .4-1.3l.2-.5 1.3.5 1.3.6-.6-1.3-.6-1.3 1.3-.4 1.3-.5-1.2-.6-1.4-.5.6-1c.4-.8.6-1.4.5-1.4l-1.2.4-1.2.5-.6-1.3-.5-1.2-.5 1.3-.5 1.2-1.2-.5-1-.5c-.2 0 0 .6.3 1.3l.5 1.3-1 .3-1.3.5-.2.2h.4l1.3.6.8.3-.5 1.3a4 4 0 0 0-.6 1.3l1.2-.6L30 37l.5 1.3.6 1.2.3-.7zM5.5 18V7l2-.6A78.6 78.6 0 0 1 42 4c3.7.5 9.6 1.7 13 2.7l1.7.5v21.3h-.2L54 28a151.2 151.2 0 0 0-48.2.4h-.2zm15.8 7l.2-1c-.1-1 .2-1.5 1-1 1 .3 1 .2 1-.5 0-.8.3-1 .7-.4.4.5 1.4 1 1.7.9v-.6c0-.7.3-1.3 1.6-2 1.3-.5 1.9-1 1.7-1.7v-.4h.2c1.8 1 2 1 3.5 1 2 0 3-.4 4.5-1.5 1.7-1.2 3-1.7 4.2-1.4h.6v.8a2 2 0 0 0 1.4 2 8 8 0 0 0 2 0H47v.4c.2.3 0 .7 0 1l-.4.6h-.4l-1-.3h-.8c-.7.2-1.3 1-.7 1 0 0 .2 0 .2.2l.5.3.4.2-.3.3-.3.8v.6h2l.4-.2.3-.4.4.3c.2.2.5.3.7.2h.5c.5.4.7-1 .3-1.6-.6-.7-.2-1.2 1-1.2.5 0 1-.3 1-.5l-.5-.4-.5-.2.6-.2c.6-.2.8-.5.4-.7-.3 0-.3-.5 0-1 .6-.8.4-1-.7-1-2.2 0-2.8-.8-1.5-2 .4-.2.8-.7 1-1v-.6l-.2-.7c-.8-1.7-3.3-2.2-9.2-1.6-4 .3-5.4.3-6-.2L34 11l.2-.3c.4-.8 1-1 3.2-1l2.2-.2 1.4-.6c1.7-.8 1.8-1 .8-1.5-.8-.4-1.5-.3-2.4.3-.7.4-.8.3-.3-.3s.5-.7-.3-.6c-.8.2-1.3.5-1.5 1L37 8l-1 .1c-2.8.4-4.5 2.6-3 4 1 1 2.2 1 8 .5 3.7-.3 7 0 6.6 1-.2.5-.8.6-4.8.5h-11l-.5 1c-.5 1.2-.8 1.5-1.6 1.4a2 2 0 0 0-1.3.2c-.4.2-1 .4-1.5.4-.6 0-1 .3-1.5.8a13.4 13.4 0 0 1-5 2.8c-.4 0-.6 0-1-.3-.8-.5-1.4-.7-2-.5l-.4.2.4.7.5.7s0 .3-.4.6l-.5 1a44.7 44.7 0 0 0 .2.5c.2 0 .4 0 .7.2l.4.2.5-.2.5-.3.2.5c0 .4.4.5.7.6.3 0 .6.2.6.3.2.2.4 0 .6 0zm15.4-.8c0-.2.2-.6 0-1v-.5h.3l1 .3c.4.3 1 .2 1 0s0-.3-.2-.4c-.4-.4-.2-.6.3-.5.7.2 1 0 .7-.4-.3-.5 0-.8.8-.8.7 0 2-.6 2-1 0 0-.2-.4-.5-.6l-.7-1.3-.2-.7h-.5a6 6 0 0 0-3 1.5c-1 .7-1 .8-.4 1 .3 0 .4 0 .4.2 0 .3-.5 1-1.2 1l-.7.4-.8-.5c-.4-.3-1-.5-1.2-.5-.6 0-1 .2-.7.4l.3.7v.6l-.5.2c-1 .4-1.2 1.2-.4 1.6.5.2 1 .2 1.4 0h.7c0 .3.5.4.9.4h.7c0 .4.3.3.5 0zm-19.2-5c.4-.4 1.3-.4 1.9 0 .6.2 2.3.2 3 0 1-.5 2.3-1.5 2.3-1.8 0-.2-.2-.2-.8 0-.5 0-1 0-1.6-.3-.4-.2-1.5-.6-2.5-.8l-2.5-1-.6-.3v-1l-.6-1.3c-.5-.6-1-.7-1-.3l-.2.4-.2.5c0 .2 0 .3-.3.2-.6-.3-1.5-.3-2 0l-.4.3.3.2.2.5.4.5.3.4-.5.5c-.6.5-.6.6.2 1h.5l1-.2c1-.4 1.4-.2 1.4.8v.7h.2l.7-.3h.4l-.2.3c-.2.5 0 1.2.2 1h.4zm6-3l-.5-1-.5-.7-.4-1.3-.5-1v-1c.2-.6 0-.8 0-1-.4-.3-.3-1.3 0-1.7.6-.5 1.3-.4 2 .2l.5.5-.6.5c-.5.4-.7.8-1 1.4l-.1.8.3.5c0 .4.3 1 .5 1.6.4 1 1 1.4 1.5 1l.2-.4-.4-.4-.5-.4V13l.2-.7H24c-.2 0-1-1-.8-1h1.6v1.5l-.3.5h1.6V13l-.2-1c-.2-.6-.2-.6 1-.8h.7l-.3.4c0 .3-.3.6-.5.6l-.2.8c0 .5 0 .8-.4 1.1l-.4.4.3.3c.4.4 1 .2 1.3-.4l.5-1.5.4-1-.2-.8c-.2-.7-.4-1-.8-1.5l-.6-.5.5-.5c.6-.7 1.4-.7 2 0 .3.5.3 1 0 1.5-.3.3-.4.6-.3 1.3 0 1-.6 3.3-1.4 4.2l-.6.7c0 .3 1.3 0 1.8-.6l.5-.5.3.3c.2.2.4.4.6.4.2 0 .8-1.3 1-2 0-.4.2-.6.3-.5.4 0 .6-.6.6-1.7 0-1.8-1.2-3.5-3-4-.4-.2-.5-.3-.4-.6v-.4h-1l-1.3.4h-.6c-.2-.5-.5-.4-.8 0h-.6L23 6.7l-1-.1V7c0 .3-.1.5-.5.5-.8.2-2 1.2-2.4 2.2-.4.7-.5 1-.5 2s.2 1.7.6 1.6c0 0 .3 0 .3.4.2 1 .8 2 1 2 .2 0 .4 0 .6-.3l.3-.3.5.5 1 .6.8.2V16zm2.5 0c.5 0 .5-.4-.1-.7l-.5-.3-.6.3c-.7.4-.7.5 0 .8.5.2.7.2 1.2 0zm15.6-6.4l.7-.5c0-.3-1-.3-1.8 0l-1 .4c-.5 0-.5.3 0 .5s1 0 2-.4zM23 8.8c0-.2-.5-.3-.7-.2-.4 0-.5.7-.3 1l.2.3.4-.5.4-.6zm5.7.4c0-.5-.5-1-.8-.6l.2.7c.4.6.7.5.6-.1z"/>
</svg>
