<?xml version="1.0" encoding="UTF-8" standalone="no"?>
<!-- Created with Inkscape (http://www.inkscape.org/) -->

<svg
   width="62.653339mm"
   height="66.976654mm"
   viewBox="0 0 62.653339 66.976654"
   version="1.1"
   id="svg1"
   xml:space="preserve"
   xmlns="http://www.w3.org/2000/svg"
   xmlns:svg="http://www.w3.org/2000/svg"><defs
     id="defs1" /><g
     id="layer1"
     transform="translate(-79.003012,-105.85695)"><path
       style="fill:#ffffff;stroke-width:0.169333"
       d="m 108.55168,172.59171 c -4.73581,-1.24932 -9.590678,-3.78733 -13.461998,-7.03762 -8.2354,-6.91428 -13.89737,-17.03476 -15.78036,-28.2066 l -0.30631,-1.81732 v -12.78448 -12.78448 l 2.37067,-0.55211 c 5.31301,-1.23735 12.54249,-2.43223 18.11867,-2.99462 10.367498,-1.04563 21.043768,-0.61996 31.919328,1.27265 2.82826,0.49218 7.86067,1.59781 9.48267,2.08335 l 0.762,0.2281 -0.009,12.2578 -0.009,12.25779 -0.38014,2.45533 c -1.59778,10.32014 -6.02587,19.21079 -13.00675,26.11474 -4.78204,4.72935 -9.94829,7.77688 -15.89029,9.37356 -1.71796,0.46163 -2.4678,0.48799 -3.81,0.13391 z m 5.78284,-4.79395 c 10.78436,-1.84658 19.65134,-11.03604 22.15171,-22.95733 0.62799,-2.99414 0.70322,-5.2272 0.64966,-19.28552 l -0.0515,-13.53126 -1.10067,-0.31859 c -4.47084,-1.29409 -11.51482,-2.74398 -16.24713,-3.34419 -6.67265,-0.84632 -12.31043,-0.84632 -18.98307,0 -4.732598,0.60025 -11.779128,2.05069 -16.247128,3.34427 l -1.10067,0.31866 v 14.71652 c 0,15.66719 0.008,15.84931 0.84964,19.22529 2.95019,11.83445 12.14139,20.63379 23.026358,22.04464 1.58192,0.20504 5.26193,0.0942 7.05284,-0.21249 z m -6.20617,-0.95727 c -1.54716,-0.22508 -2.7822,-0.44352 -3.34434,-0.59152 l -0.635,-0.16719 v -5.2487 -5.24869 l -6.336048,0.0482 -6.33606,0.0482 -0.51097,0.37796 -0.51096,0.37795 -0.79561,-1.19676 c -2.21323,-3.32917 -3.54521,-6.61994 -4.56795,-11.28548 l -0.0835,-0.381 h 9.57056 9.570558 v -4.97318 -4.97317 l 0.635,-0.10496 c 0.82666,-0.13664 10.09535,-0.13664 10.922,0 l 0.635,0.10496 v 4.97317 4.97318 h 9.5631 9.5631 l -0.10324,0.55033 c -0.70422,3.75365 -2.39899,7.90569 -4.54383,11.13197 l -0.78508,1.18094 -0.51097,-0.37795 -0.51096,-0.37796 -6.33606,-0.0482 -6.33606,-0.0482 v 5.24869 5.2487 l -0.635,0.16512 c -1.88446,0.49 -6.04786,0.81614 -7.57766,0.59359 z m 2.62466,-3.20099 c 0.21906,-0.6985 0.46325,-1.27 0.54265,-1.27 0.0794,0 0.60564,0.23286 1.16944,0.51747 0.56381,0.28461 1.09592,0.49386 1.18248,0.46501 0.0866,-0.0289 -0.10505,-0.60007 -0.42581,-1.26938 l -0.58319,-1.21691 1.34322,-0.44734 c 0.73877,-0.24603 1.34321,-0.47081 1.34321,-0.49952 0,-0.0287 -0.59891,-0.265 -1.33091,-0.52508 l -1.33091,-0.47289 0.56891,-1.24839 c 0.3129,-0.68662 0.56891,-1.28323 0.56891,-1.32581 0,-0.0426 -0.53655,0.19279 -1.19234,0.52304 -0.65579,0.33025 -1.24665,0.56689 -1.31303,0.52587 -0.0664,-0.041 -0.3081,-0.61507 -0.53717,-1.27566 -0.22907,-0.66059 -0.46299,-1.20108 -0.51983,-1.20108 -0.0568,0 -0.28257,0.5715 -0.50163,1.27 -0.21906,0.6985 -0.41875,1.27 -0.44376,1.27 -0.025,0 -0.6212,-0.26236 -1.32486,-0.58303 -0.70365,-0.32067 -1.27938,-0.54736 -1.27938,-0.50377 0,0.0436 0.27159,0.61857 0.60354,1.27772 0.33194,0.65915 0.57959,1.2155 0.55033,1.23633 -0.0293,0.0208 -0.5485,0.21195 -1.15387,0.4247 -0.60536,0.21276 -1.16331,0.44487 -1.23989,0.5158 -0.0766,0.0709 0.43108,0.33698 1.12812,0.5912 l 1.26734,0.46223 -0.57975,1.20975 c -0.31887,0.66537 -0.50894,1.23337 -0.42238,1.26222 0.0866,0.0289 0.62387,-0.18303 1.19403,-0.47084 0.57016,-0.28782 1.10615,-0.48036 1.19109,-0.42786 0.0849,0.0525 0.32551,0.62662 0.5346,1.27583 0.20909,0.64922 0.42796,1.18039 0.48636,1.18039 0.0584,0 0.28542,-0.5715 0.50448,-1.27 z m -16.265278,-9.779 c 0.11752,-0.39582 0.3172,-0.96972 0.44374,-1.27535 l 0.23007,-0.55569 1.20909,0.60889 c 0.665,0.33489 1.23802,0.57996 1.27338,0.5446 0.0354,-0.0354 -0.20105,-0.61796 -0.52535,-1.29467 -0.32431,-0.67671 -0.58965,-1.24885 -0.58965,-1.27143 0,-0.0226 0.5715,-0.22029 1.27,-0.43935 0.6985,-0.21906 1.27,-0.44698 1.27,-0.5065 0,-0.0595 -0.51435,-0.28572 -1.143,-0.50269 -0.62865,-0.21697 -1.19494,-0.44062 -1.25842,-0.49698 -0.0635,-0.0564 0.14132,-0.65495 0.45512,-1.33016 0.31379,-0.67522 0.5414,-1.22767 0.5058,-1.22767 -0.0356,0 -0.62991,0.25756 -1.32067,0.57235 l -1.25594,0.57235 -0.3952,-1.26014 c -0.21736,-0.69308 -0.44066,-1.28823 -0.49621,-1.32256 -0.0555,-0.0343 -0.31473,0.53911 -0.57596,1.27433 l -0.47496,1.33675 -1.1863,-0.5974 c -0.65246,-0.32858 -1.22107,-0.56264 -1.26357,-0.52014 -0.0425,0.0425 0.1558,0.59133 0.44068,1.21962 0.28488,0.6283 0.51797,1.19459 0.51797,1.25845 0,0.0639 -0.56832,0.29433 -1.26294,0.51218 -0.69462,0.21784 -1.22579,0.45618 -1.18039,0.52964 0.0454,0.0734 0.61372,0.30463 1.26294,0.51373 0.64921,0.20909 1.18039,0.44304 1.18039,0.51989 0,0.0769 -0.22928,0.64537 -0.5095,1.26339 -0.28022,0.61802 -0.47853,1.15464 -0.44069,1.19249 0.0378,0.0378 0.60614,-0.20179 1.26287,-0.53251 0.65674,-0.33073 1.22585,-0.54517 1.26469,-0.47654 0.0388,0.0686 0.23944,0.63914 0.44576,1.26779 0.20633,0.62865 0.43307,1.143 0.50387,1.143 0.0708,0 0.22487,-0.32385 0.34238,-0.71967 z m 32.360808,-0.42333 c 0.20633,-0.62865 0.40693,-1.19915 0.44577,-1.26779 0.0388,-0.0686 0.60795,0.14581 1.26468,0.47654 0.65674,0.33072 1.22503,0.57035 1.26288,0.53251 0.0378,-0.0379 -0.16047,-0.57447 -0.44069,-1.19249 -0.28022,-0.61802 -0.5095,-1.18654 -0.5095,-1.26339 0,-0.0768 0.53118,-0.3108 1.18039,-0.51989 0.64922,-0.2091 1.21754,-0.44028 1.26294,-0.51373 0.0454,-0.0735 -0.48578,-0.3118 -1.18039,-0.52964 -0.69462,-0.21785 -1.26294,-0.44833 -1.26294,-0.51218 0,-0.0639 0.23309,-0.63015 0.51796,-1.25845 0.28489,-0.62829 0.4832,-1.17712 0.44069,-1.21962 -0.0425,-0.0425 -0.61111,0.19156 -1.26357,0.52014 l -1.1863,0.5974 -0.47496,-1.33675 c -0.26123,-0.73522 -0.52042,-1.30867 -0.57597,-1.27433 -0.0556,0.0343 -0.27884,0.62948 -0.4962,1.32256 l -0.3952,1.26014 -1.25594,-0.57235 c -0.69077,-0.31479 -1.28507,-0.57235 -1.32067,-0.57235 -0.0356,0 0.19201,0.55245 0.5058,1.22767 0.3138,0.67521 0.5186,1.27379 0.45512,1.33016 -0.0635,0.0564 -0.62978,0.28001 -1.25843,0.49698 -0.62865,0.21697 -1.143,0.44318 -1.143,0.50269 0,0.0595 0.5715,0.28744 1.27,0.5065 0.6985,0.21906 1.27,0.41677 1.27,0.43935 0,0.0226 -0.26533,0.59472 -0.58964,1.27143 -0.3243,0.67671 -0.56071,1.25931 -0.52535,1.29467 0.0354,0.0354 0.60838,-0.20971 1.27338,-0.5446 l 1.20909,-0.60889 0.23007,0.55569 c 0.12654,0.30563 0.32622,0.87953 0.44373,1.27535 0.11752,0.39582 0.27159,0.71967 0.34239,0.71967 0.0708,0 0.29754,-0.51435 0.50386,-1.143 z m -17.35476,-7.47218 c -0.13742,-0.26574 -0.51237,-0.60773 -0.83323,-0.75999 l -0.58339,-0.27683 h -2.8954 -2.89541 v 4.064 4.064 l 3.175,8.4e-4 3.175,8.5e-4 0.508,0.30863 0.508,0.30862 0.0456,-3.61353 0.0456,-3.61353 -0.24985,-0.48315 z m -5.85277,5.22851 v -0.33867 h 2.37067 2.37067 v 0.33867 0.33867 h -2.37067 -2.37067 z m 0,-2.11667 v -0.254 h 2.37067 2.37067 v 0.254 0.254 h -2.37067 -2.37067 z m 0,-2.032 v -0.254 h 2.37067 2.37067 v 0.254 0.254 h -2.37067 -2.37067 z m 11.38767,6.01197 3.175,-6.3e-4 v -4.064 -4.064 h -2.89541 -2.89541 l -0.58338,0.27683 c -1.00487,0.47684 -1.07647,0.8012 -1.07647,4.87694 v 3.64658 l 0.55034,-0.33554 0.55033,-0.33555 3.175,-6.7e-4 z m -2.921,-1.8633 v -0.33867 h 2.37067 2.37066 v 0.33867 0.33867 h -2.37066 -2.37067 z m 0,-2.11667 v -0.254 h 2.37067 2.37066 v 0.254 0.254 h -2.37066 -2.37067 z m 0,-2.032 v -0.254 h 2.37067 2.37066 v 0.254 0.254 h -2.37066 -2.37067 z m -10.32933,5.50334 v -0.508 h -0.59267 -0.59267 v 0.508 0.508 h 0.59267 0.59267 z m 18.11866,0 v -0.508 h -0.59266 -0.59267 v 0.508 0.508 h 0.59267 0.59266 z m -18.11866,-2.20134 v -0.508 h -0.59267 -0.59267 v 0.508 0.508 h 0.59267 0.59267 z m 18.11866,0 v -0.508 h -0.59266 -0.59267 v 0.508 0.508 h 0.59267 0.59266 z m -18.11866,-2.20133 v -0.508 h -0.59267 -0.59267 v 0.508 0.508 h 0.59267 0.59267 z m 18.11866,0 v -0.508 h -0.59266 -0.59267 v 0.508 0.508 h 0.59267 0.59266 z m -18.11866,-2.20133 v -0.508 h -0.59267 -0.59267 v 0.508 0.508 h 0.59267 0.59267 z m 18.11866,0 v -0.508 h -0.59266 -0.59267 v 0.508 0.508 h 0.59267 0.59266 z m -9.32261,-1.56634 c 0.11752,-0.39581 0.31613,-0.96719 0.44138,-1.26971 l 0.22772,-0.55005 1.27875,0.58275 c 0.70332,0.32051 1.27876,0.55519 1.27876,0.52151 0,-0.0337 -0.26624,-0.61679 -0.59164,-1.2958 l -0.59165,-1.23456 1.27449,-0.44985 c 0.70096,-0.24742 1.30974,-0.48511 1.35284,-0.52821 0.0431,-0.0431 -0.52805,-0.28945 -1.26921,-0.54745 l -1.34756,-0.4691 0.59724,-1.18595 c 0.32848,-0.65227 0.55179,-1.23139 0.49626,-1.28693 -0.0555,-0.0555 -0.59852,0.14438 -1.20662,0.44425 -0.60811,0.29987 -1.16401,0.50914 -1.23535,0.46505 -0.0713,-0.0441 -0.31254,-0.61719 -0.536,-1.27355 -0.22346,-0.65637 -0.45179,-1.1934 -0.5074,-1.1934 -0.0556,0 -0.28034,0.5715 -0.4994,1.27 -0.21906,0.6985 -0.46324,1.27 -0.54264,1.27 -0.0794,0 -0.5972,-0.2286 -1.15069,-0.508 -0.55349,-0.2794 -1.08279,-0.508 -1.17623,-0.508 -0.0934,0 0.0887,0.56736 0.40468,1.2608 l 0.57456,1.2608 -1.0445,0.35046 c -0.57448,0.19276 -1.15623,0.42113 -1.29277,0.50748 l -0.24826,0.15702 0.41759,0.15276 c 0.22968,0.084 0.8101,0.29123 1.28983,0.46047 l 0.87223,0.30772 -0.5759,1.26372 c -0.31674,0.69505 -0.5759,1.29327 -0.5759,1.32938 0,0.0361 0.53656,-0.20455 1.19235,-0.5348 0.65579,-0.33025 1.25224,-0.56344 1.32546,-0.51819 0.0732,0.0452 0.31594,0.61929 0.5394,1.27566 0.22346,0.65636 0.45314,1.19339 0.5104,1.19339 0.0573,0 0.20027,-0.32385 0.31778,-0.71967 z M 84.675682,123.61329 v -10.64688 l 1.905,-0.52034 c 4.80018,-1.31112 10.31534,-2.35851 16.382998,-3.11131 1.13033,-0.14024 3.7827,-0.22059 7.28133,-0.22059 5.38714,0 6.38632,0.0638 10.83734,0.69219 3.74278,0.52839 9.57127,1.73685 13.16566,2.72971 l 1.56634,0.43267 v 10.64571 10.64572 h -0.24471 c -0.1346,0 -1.26306,-0.14965 -2.50771,-0.33256 -15.71178,-2.30891 -29.92205,-2.30891 -45.633828,0 -1.24465,0.18291 -2.37312,0.33256 -2.50771,0.33256 h -0.24471 z m 15.741958,6.84415 c 0.11732,-0.14135 0.18041,-0.58418 0.14774,-1.03688 -0.0723,-1.00184 0.24448,-1.2778 1.08166,-0.94226 0.95284,0.38191 1.05862,0.34615 1.00411,-0.33937 -0.0637,-0.80081 0.23195,-0.96954 0.68643,-0.39177 0.38299,0.4869 1.39897,1.00049 1.66001,0.83916 0.086,-0.0531 0.11138,-0.32137 0.0564,-0.59607 -0.14705,-0.73525 0.2834,-1.25344 1.53897,-1.85267 1.27692,-0.60942 1.85733,-1.23549 1.70565,-1.83983 l -0.10284,-0.40975 0.30494,0.12774 c 1.81049,0.75843 2.05561,0.81597 3.52226,0.82685 1.88607,0.014 2.84982,-0.29283 4.45022,-1.41675 1.75163,-1.23012 3.12372,-1.6942 4.26677,-1.44315 l 0.51168,0.11239 v 0.73555 c 0,0.90078 0.59239,1.69141 1.44336,1.92637 0.31621,0.0873 1.1835,0.11704 1.92731,0.0661 l 1.35238,-0.0927 0.11665,0.46478 c 0.0752,0.2996 0.0161,0.67555 -0.1662,1.0579 l -0.28284,0.59314 -0.45966,-0.0928 c -0.25282,-0.051 -0.66781,-0.14407 -0.9222,-0.20681 -0.2544,-0.0627 -0.64912,-0.0672 -0.87716,-0.01 -0.71327,0.17902 -1.27515,0.95022 -0.69231,0.95022 0.1397,0 0.254,0.0778 0.254,0.17297 0,0.0951 0.19103,0.26 0.4245,0.36638 l 0.4245,0.19341 -0.27132,0.2998 c -0.14922,0.1649 -0.28309,0.53792 -0.2975,0.82895 l -0.0262,0.52914 1.03164,0.0752 1.03164,0.0752 0.30823,-0.34059 0.30824,-0.3406 0.40397,0.26469 c 0.22218,0.14558 0.53364,0.24337 0.69212,0.21732 0.15849,-0.026 0.39193,0.0177 0.51876,0.0971 0.50935,0.31911 0.74352,-1.07775 0.28279,-1.68688 -0.54919,-0.7261 -0.14002,-1.26004 0.96562,-1.26004 0.51907,0 0.97633,-0.24105 0.97633,-0.51468 0,-0.0596 -0.20955,-0.20647 -0.46567,-0.32648 l -0.46567,-0.21819 0.58245,-0.20165 c 0.64995,-0.22503 0.85518,-0.54796 0.44764,-0.70435 -0.36548,-0.14025 -0.33649,-0.51096 0.0864,-1.10484 0.53369,-0.74951 0.33667,-0.99212 -0.81483,-1.00336 -2.22619,-0.0217 -2.80392,-0.69837 -1.50505,-1.7627 0.44107,-0.36142 0.84329,-0.86953 0.9541,-1.20529 l 0.19157,-0.58047 -0.3098,-0.63175 c -0.8627,-1.75928 -3.26974,-2.19039 -9.2369,-1.65436 -3.9648,0.35616 -5.40483,0.30812 -5.91011,-0.19716 l -0.35212,-0.35212 0.19229,-0.35929 c 0.39847,-0.74456 0.94794,-0.92226 3.20256,-1.03573 l 2.14248,-0.10783 1.4808,-0.6662 c 1.65496,-0.74456 1.77866,-0.98819 0.7555,-1.488 -0.77547,-0.37883 -1.511,-0.28239 -2.3886,0.31317 -0.67994,0.46141 -0.78141,0.34926 -0.27103,-0.29958 0.47368,-0.60219 0.4291,-0.68535 -0.29634,-0.55278 -0.80903,0.14784 -1.37187,0.51083 -1.56022,1.00625 l -0.14811,0.38956 -0.98733,0.11351 c -2.82736,0.32507 -4.54831,2.52997 -3.10287,3.97541 0.94919,0.94919 2.27042,1.03525 8.07936,0.52628 3.72588,-0.32646 6.87051,0.10501 6.60632,0.90643 -0.18862,0.57216 -0.82477,0.64546 -4.78081,0.55085 -2.14207,-0.0512 -5.52938,-0.11028 -7.52737,-0.13123 l -3.6327,-0.0381 -0.38409,0.99162 c -0.54263,1.4009 -0.83056,1.67586 -1.64101,1.56716 -0.45544,-0.0611 -0.84644,0.011 -1.2772,0.23555 -0.34145,0.17797 -0.999,0.37196 -1.46123,0.43108 -0.65782,0.0841 -0.98756,0.24634 -1.51774,0.74654 -1.21306,1.14449 -3.60378,2.48747 -4.950928,2.78118 -0.41968,0.0915 -0.66614,0.0356 -1.05085,-0.23833 -0.76795,-0.54683 -1.40761,-0.72364 -1.91713,-0.52992 l -0.44054,0.1675 0.32614,0.67504 c 0.17938,0.37128 0.40486,0.72369 0.50107,0.78315 0.10204,0.0631 -0.0385,0.30751 -0.33742,0.58671 -0.28178,0.26323 -0.51234,0.63852 -0.51234,0.83399 0,0.19547 8.5e-4,0.41254 0.002,0.48239 10e-4,0.0699 0.0963,0.13324 0.21167,0.14087 0.11537,0.008 0.41235,0.11193 0.65995,0.23179 l 0.45019,0.21793 0.49636,-0.24762 0.49637,-0.24762 0.18227,0.48289 c 0.1294,0.34283 0.33475,0.51339 0.70797,0.58803 0.28914,0.0578 0.56672,0.1715 0.61684,0.25261 0.1337,0.21632 0.340998,0.18042 0.573118,-0.0993 z m 15.42492,-0.61777 c 0.1069,-0.19974 0.14337,-0.60926 0.083,-0.93133 l -0.10784,-0.57484 h 0.32032 c 0.17618,0 0.56009,0.11961 0.85313,0.2658 0.50881,0.25383 1.21256,0.20325 1.21256,-0.0871 0,-0.0755 -0.1143,-0.23205 -0.254,-0.34799 -0.41315,-0.34289 -0.29477,-0.54387 0.24987,-0.42424 0.67027,0.14721 0.90366,-0.007 0.67017,-0.44353 -0.25973,-0.48532 0.0826,-0.82472 0.83636,-0.82928 0.73713,-0.004 2.05549,-0.56877 2.0489,-0.87701 -0.003,-0.12097 -0.23623,-0.44723 -0.51919,-0.72502 -0.28297,-0.2778 -0.60146,-0.83025 -0.70776,-1.22767 l -0.19326,-0.72259 -0.51521,0.002 c -0.68264,0.002 -2.13172,0.69001 -3.06517,1.45491 -0.86471,0.70856 -0.91592,0.86652 -0.32871,1.01391 0.23283,0.0584 0.42333,0.15723 0.42333,0.21955 0,0.33613 -0.59747,0.87214 -1.24988,1.1213 l -0.74245,0.28354 -0.72257,-0.52343 c -0.45915,-0.33264 -0.92573,-0.52347 -1.27984,-0.52347 -0.56209,0 -0.92964,0.28473 -0.62558,0.4846 0.0904,0.0594 0.21254,0.35551 0.27137,0.65794 l 0.10697,0.54987 -0.57471,0.24013 c -0.97533,0.40751 -1.22768,1.23493 -0.48223,1.58113 0.55954,0.25986 0.98189,0.26838 1.42948,0.0288 0.26872,-0.14382 0.41255,-0.11864 0.67403,0.118 0.19482,0.17631 0.57466,0.29397 0.91761,0.28425 0.32185,-0.009 0.62762,0.0521 0.67949,0.13599 0.15662,0.25341 0.39017,0.17295 0.59186,-0.20391 z m -19.238848,-5.15222 c 0.42279,-0.31979 1.27788,-0.31783 1.89561,0.004 0.62465,0.32577 2.271308,0.32688 3.048748,0.002 0.8391,-0.3506 2.26228,-1.42054 2.26228,-1.70078 0,-0.17645 -0.19152,-0.20946 -0.80434,-0.13863 -0.54126,0.0626 -1.05355,-5.1e-4 -1.56633,-0.19282 -0.4191,-0.15718 -1.562098,-0.51221 -2.539998,-0.78895 -0.9779,-0.27674 -2.0828,-0.67114 -2.45533,-0.87644 l -0.67734,-0.37327 -0.10553,-0.97929 c -0.0725,-0.67325 -0.22262,-1.10393 -0.4802,-1.37811 -0.50588,-0.53848 -1.02293,-0.66764 -1.02293,-0.25552 0,0.17205 -0.0762,0.35992 -0.16934,0.41748 -0.0931,0.0576 -0.16933,0.26071 -0.16933,0.45144 0,0.26698 -0.0682,0.31683 -0.29633,0.2166 -0.63763,-0.28013 -1.57061,-0.28086 -1.99687,-0.002 l -0.42603,0.27915 0.25895,0.25895 c 0.14242,0.14241 0.25895,0.34383 0.25895,0.4476 0,0.10376 0.15626,0.35499 0.34725,0.55829 l 0.34726,0.36963 -0.52761,0.44396 c -0.59638,0.50181 -0.56771,0.64897 0.18739,0.96174 l 0.53089,0.2199 0.92646,-0.31491 c 1.20615,-0.40998 1.51331,-0.2452 1.43397,0.76926 l -0.0564,0.72097 0.3104,-0.12996 c 0.17071,-0.0715 0.48345,-0.16744 0.69496,-0.21327 l 0.38457,-0.0833 -0.17721,0.46613 c -0.17327,0.45571 -0.0907,1.10405 0.13914,1.09334 0.0636,-0.003 0.26351,-0.11727 0.44429,-0.254 z m 6.094538,-2.83095 c -0.0654,-0.20955 -0.33725,-0.6313 -0.60408,-0.93722 -0.26684,-0.30593 -0.48516,-0.67017 -0.48516,-0.80944 0,-0.13926 -0.19749,-0.72243 -0.43887,-1.29592 l -0.43887,-1.04271 0.1089,-0.87157 c 0.0847,-0.67797 0.0505,-0.92 -0.1538,-1.08959 -0.3761,-0.31214 -0.33231,-1.29226 0.076,-1.70055 0.49294,-0.49294 1.24609,-0.43107 1.90233,0.1563 l 0.553,0.49496 -0.63263,0.56337 c -0.44256,0.3941 -0.69503,0.80598 -0.84029,1.37081 l -0.20765,0.80744 0.22127,0.54723 c 0.12171,0.30097 0.37783,0.98677 0.56918,1.524 0.38639,1.08482 0.92859,1.42799 1.44318,0.91341 l 0.27039,-0.2704 -0.45693,-0.42346 -0.45692,-0.42347 0.10917,-0.68276 0.10918,-0.68276 h -0.26324 c -0.21781,0 -0.8937,-0.99139 -0.75444,-1.10661 0.0237,-0.0196 0.38596,0.0127 0.80506,0.0717 l 0.762,0.10733 -0.008,0.42146 c -0.004,0.2318 -0.0596,0.66911 -0.12277,0.97179 l -0.11479,0.55033 h 0.75777 0.75776 l -0.004,-0.29633 c -0.002,-0.16298 -0.0715,-0.58712 -0.15403,-0.94252 -0.16632,-0.71659 -0.17828,-0.70588 0.96827,-0.86664 l 0.72553,-0.10172 -0.26872,0.51965 c -0.1478,0.28581 -0.37904,0.56199 -0.51387,0.61372 -0.15852,0.0608 -0.24514,0.33811 -0.24514,0.78471 0,0.47791 -0.11441,0.81243 -0.37146,1.08604 l -0.37146,0.39541 0.27246,0.27246 c 0.40482,0.40482 1.11438,0.17311 1.25255,-0.40902 0.0605,-0.2547 0.2954,-0.91128 0.52212,-1.45907 l 0.4122,-0.99597 -0.20597,-0.86669 c -0.1441,-0.60634 -0.38319,-1.03493 -0.7959,-1.42675 l -0.58996,-0.56006 0.47738,-0.49828 c 0.63248,-0.66017 1.43044,-0.68176 1.92572,-0.0521 0.43711,0.55569 0.44667,1.09145 0.0287,1.60761 -0.25516,0.3151 -0.30395,0.57518 -0.23439,1.24921 0.11532,1.11732 -0.62002,3.2864 -1.42062,4.1905 -0.30951,0.34952 -0.56274,0.68334 -0.56274,0.74182 0,0.29606 1.30144,-0.1534 1.77598,-0.61334 l 0.5347,-0.51826 0.31024,0.34282 c 0.17063,0.18854 0.41543,0.34281 0.54401,0.34281 0.24143,0 0.8514,-1.24702 1.01919,-2.08362 0.0634,-0.31583 0.17446,-0.44456 0.33166,-0.38423 0.32969,0.12651 0.58821,-0.63765 0.58832,-1.73905 1.7e-4,-1.75031 -1.23262,-3.42772 -2.95627,-4.02248 -0.42512,-0.14669 -0.52719,-0.2676 -0.48258,-0.57163 l 0.0566,-0.38558 -0.9769,0.12206 c -0.5373,0.0671 -1.14741,0.18688 -1.3558,0.26611 -0.26586,0.10108 -0.43952,0.071 -0.58209,-0.10076 -0.26172,-0.31535 -0.48706,-0.30937 -0.85396,0.0227 -0.21521,0.19476 -0.38,0.22244 -0.606,0.1018 -0.17073,-0.0911 -0.74857,-0.22029 -1.28409,-0.28701 l -0.97367,-0.12131 v 0.42939 c 0,0.33761 -0.10656,0.4528 -0.49855,0.53889 -0.791738,0.1739 -1.921858,1.15125 -2.447118,2.11633 -0.3845,0.70644 -0.48333,1.1033 -0.48333,1.9408 0,1.13847 0.25064,1.82634 0.61456,1.68669 0.15101,-0.058 0.26449,0.0928 0.3349,0.44487 0.17301,0.86505 0.74859,2.02605 1.00444,2.02605 0.13051,0 0.376888,-0.15426 0.547518,-0.34281 l 0.31024,-0.34281 0.52034,0.49917 c 0.28618,0.27455 0.78704,0.57434 1.113,0.66621 0.32597,0.0919 0.61685,0.1739 0.64642,0.1823 0.0296,0.008 1.6e-4,-0.15617 -0.0652,-0.36572 z m 2.37107,0.0465 c 0.58005,-0.22053 0.54863,-0.54827 -0.0792,-0.82618 l -0.51356,-0.22732 -0.58711,0.2786 c -0.70866,0.33628 -0.73834,0.51792 -0.12144,0.74323 0.61353,0.22408 0.78431,0.22824 1.30131,0.0317 z m 15.61051,-6.48491 c 0.41036,-0.19937 0.72009,-0.44202 0.68827,-0.53922 -0.10598,-0.32383 -1.0967,-0.2865 -1.79054,0.0675 -0.37568,0.19166 -0.83849,0.34847 -1.02847,0.34847 -0.42359,0 -0.44903,0.25939 -0.0491,0.50043 0.38087,0.22954 1.23537,0.0817 2.17982,-0.37716 z m -18.56891,-0.82483 c 0.01,-0.17551 -0.48037,-0.31209 -0.74946,-0.20883 -0.35437,0.13598 -0.49452,0.713 -0.24593,1.01253 l 0.21183,0.25524 0.38874,-0.47503 c 0.2138,-0.26127 0.39148,-0.52403 0.39482,-0.58391 z m 5.73543,0.35737 c -0.073,-0.49389 -0.56502,-0.82387 -0.83132,-0.55758 -0.14218,0.14219 -0.0915,0.3263 0.19738,0.71703 0.41689,0.56388 0.72928,0.48531 0.63394,-0.15945 z"
       id="path2" /></g></svg>
